<svg width="35" height="36" viewBox="0 0 35 36" fill="none" xmlns="http://www.w3.org/2000/svg">
<rect y="0.5" width="35" height="35" rx="17.5" fill="white"/>
<path d="M15.5 26.5675C12.0714 27.7248 9.21429 26.5675 7.5 23" stroke="#48484A" stroke-width="1.5" stroke-linecap="round" stroke-linejoin="round"/>
<path d="M15.5 28V24.7579C15.5 24.1596 15.6839 23.6396 15.9804 23.1699C16.1838 22.8476 16.0445 22.3904 15.6771 22.2894C12.6339 21.4528 10.5 20.1077 10.5 15.6461C10.5 14.4861 10.8801 13.3956 11.5481 12.4464C11.7144 12.2102 11.7975 12.0921 11.8175 11.9851C11.8375 11.8781 11.8027 11.7385 11.7332 11.4593C11.4504 10.3229 11.4687 9.11619 11.8932 8.02823C11.8932 8.02823 12.7704 7.74242 14.767 8.98969C15.2228 9.27447 15.4507 9.41686 15.6515 9.44871C15.8522 9.48056 16.1206 9.41384 16.6573 9.28041C17.3913 9.09795 18.1476 9 19 9C19.8524 9 20.6087 9.09795 21.3427 9.28041C21.8794 9.41384 22.1478 9.48056 22.3485 9.44871C22.5493 9.41686 22.7772 9.27447 23.233 8.98969C25.2296 7.74242 26.1068 8.02823 26.1068 8.02823C26.5313 9.11619 26.5496 10.3229 26.2668 11.4593C26.1973 11.7385 26.1625 11.8781 26.1825 11.9851C26.2025 12.0921 26.2856 12.2102 26.4519 12.4464C27.1199 13.3956 27.5 14.4861 27.5 15.6461C27.5 20.1077 25.3661 21.4528 22.3229 22.2894C21.9555 22.3904 21.8162 22.8476 22.0196 23.1699C22.3161 23.6396 22.5 24.1596 22.5 24.7579V28" stroke="#48484A" stroke-width="1.5" stroke-linecap="round" stroke-linejoin="round"/>
</svg>
