<svg width="35" height="36" viewBox="0 0 35 36" fill="none" xmlns="http://www.w3.org/2000/svg">
<rect y="0.5" width="35" height="35" rx="17.5" fill="white"/>
<path d="M12.5 16V23" stroke="#48484A" stroke-width="1.5" stroke-linecap="round" stroke-linejoin="round"/>
<path d="M16.5 19V23M16.5 19C16.5 17.3431 17.8431 16 19.5 16C21.1569 16 22.5 17.3431 22.5 19V23M16.5 19V16" stroke="#48484A" stroke-width="1.5" stroke-linecap="round" stroke-linejoin="round"/>
<path d="M12.508 13L12.499 13" stroke="#48484A" stroke-width="2" stroke-linecap="round" stroke-linejoin="round"/>
<path d="M8 18C8 13.5217 8 11.2825 9.39124 9.89124C10.7825 8.5 13.0217 8.5 17.5 8.5C21.9783 8.5 24.2175 8.5 25.6088 9.89124C27 11.2825 27 13.5217 27 18C27 22.4783 27 24.7175 25.6088 26.1088C24.2175 27.5 21.9783 27.5 17.5 27.5C13.0217 27.5 10.7825 27.5 9.39124 26.1088C8 24.7175 8 22.4783 8 18Z" stroke="#48484A" stroke-width="1.5" stroke-linejoin="round"/>
</svg>
