<svg width="25" height="24" viewBox="0 0 25 24" fill="none" xmlns="http://www.w3.org/2000/svg">
<path d="M11.1933 3C7.54359 3.00657 5.63244 3.09617 4.41108 4.31754C3.09302 5.63559 3.09302 7.75698 3.09302 11.9997C3.09302 16.2425 3.09302 18.3639 4.41107 19.6819C5.72913 21 7.85051 21 12.0933 21C16.336 21 18.4574 21 19.7755 19.6819C20.9968 18.4606 21.0864 16.5494 21.093 12.8998" stroke="#48484A" stroke-width="1.5" stroke-linecap="round" stroke-linejoin="round"/>
<path d="M21.1643 4.0315C21.4579 3.73926 21.4589 3.26439 21.1667 2.97085C20.8744 2.6773 20.3996 2.67625 20.106 2.9685L20.6352 3.5L21.1643 4.0315ZM10.5639 12.4685C10.2703 12.7607 10.2693 13.2356 10.5615 13.5292C10.8538 13.8227 11.3286 13.8237 11.6222 13.5315L11.093 13L10.5639 12.4685ZM20.1215 3.22706L19.9907 3.96557L20.1215 3.22706ZM16.093 2.25C15.6788 2.25004 15.343 2.58585 15.343 3.00007C15.3431 3.41428 15.6789 3.75004 16.0931 3.75L16.093 3L16.093 2.25ZM20.343 8C20.343 8.41421 20.6788 8.75 21.093 8.75C21.5072 8.75 21.843 8.41421 21.843 8H21.093H20.343ZM20.866 3.97175L21.6045 3.84109V3.84109L20.866 3.97175ZM20.6352 3.5L20.106 2.9685L10.5639 12.4685L11.093 13L11.6222 13.5315L21.1643 4.0315L20.6352 3.5ZM20.1215 3.22706L20.2523 2.48855C19.5514 2.36443 18.4946 2.30696 17.6511 2.27871C17.2212 2.26432 16.8326 2.25715 16.5515 2.25357C16.4109 2.25179 16.2969 2.25089 16.2177 2.25045C16.1781 2.25022 16.1473 2.25011 16.1261 2.25006C16.1156 2.25003 16.1074 2.25001 16.1019 2.25001C16.0991 2.25 16.0969 2.25 16.0955 2.25C16.0947 2.25 16.0941 2.25 16.0937 2.25C16.0935 2.25 16.0933 2.25 16.0932 2.25C16.0932 2.25 16.0931 2.25 16.0931 2.25C16.093 2.25 16.093 2.25 16.093 3C16.0931 3.75 16.0931 3.75 16.0931 3.75C16.0931 3.75 16.0931 3.75 16.0931 3.75C16.0931 3.75 16.0932 3.75 16.0934 3.75C16.0936 3.75 16.094 3.75 16.0946 3.75C16.0958 3.75 16.0976 3.75 16.1 3.75001C16.1049 3.75001 16.1123 3.75002 16.1222 3.75005C16.1419 3.7501 16.1713 3.75021 16.2093 3.75042C16.2853 3.75085 16.3957 3.75171 16.5325 3.75345C16.8062 3.75694 17.184 3.76391 17.6009 3.77787C18.4507 3.80633 19.4081 3.86239 19.9907 3.96557L20.1215 3.22706ZM21.093 8C21.843 8 21.843 7.99996 21.843 7.99991C21.843 7.99988 21.843 7.99982 21.843 7.99975C21.843 7.99963 21.843 7.99946 21.843 7.99926C21.843 7.99884 21.843 7.99826 21.843 7.99752C21.843 7.99603 21.843 7.99388 21.843 7.99109C21.843 7.98552 21.843 7.97739 21.843 7.96683C21.8429 7.9457 21.8428 7.91483 21.8426 7.87526C21.8421 7.79614 21.8412 7.68213 21.8394 7.54148C21.8358 7.2604 21.8286 6.87182 21.8142 6.44203C21.786 5.59857 21.7285 4.54186 21.6045 3.84109L20.866 3.97175L20.1274 4.1024C20.2305 4.68506 20.2866 5.64247 20.3151 6.49229C20.329 6.90913 20.336 7.28697 20.3395 7.56066C20.3413 7.69739 20.3422 7.80784 20.3426 7.88384C20.3428 7.92183 20.3429 7.95119 20.343 7.9709C20.343 7.98075 20.343 7.98819 20.343 7.99308C20.343 7.99553 20.343 7.99734 20.343 7.9985C20.343 7.99908 20.343 7.99949 20.343 7.99974C20.343 7.99987 20.343 7.99995 20.343 8C20.343 8.00002 20.343 8.00002 20.343 8.00003C20.343 8.00002 20.343 8 21.093 8ZM20.1215 3.22706L19.9907 3.96557C20.0412 3.97451 20.0687 3.99342 20.0841 4.00887C20.0996 4.02432 20.1185 4.05182 20.1274 4.1024L20.866 3.97175L21.6045 3.84109C21.4804 3.13972 20.9539 2.6128 20.2523 2.48855L20.1215 3.22706Z" fill="#48484A"/>
</svg>
